<svg id="Pictograms" xmlns="http://www.w3.org/2000/svg" viewBox="0 0 240 240"><defs><style>.cls-1{fill:#fff;}.cls-2{fill:#e35500;}.cls-3,.cls-4,.cls-5{fill:#f0ab00;}.cls-3{opacity:0.4;}.cls-4{opacity:0.7;}</style></defs><title>281433-pictogram-neg</title><path class="cls-1" d="M212,168H120v-4h92a20,20,0,0,0,0-40H120v-4h92a24,24,0,0,1,0,48Zm-92-4H28a20,20,0,0,1,0-40h92v-4H28a24,24,0,0,0,0,48h92ZM52,144a12,12,0,1,0-12,12A12,12,0,0,0,52,144Zm-4,0a8,8,0,1,1-8-8A8,8,0,0,1,48,144Zm36,0a12,12,0,1,0-12,12A12,12,0,0,0,84,144Zm-4,0a8,8,0,1,1-8-8A8,8,0,0,1,80,144Zm36,0a12,12,0,1,0-12,12A12,12,0,0,0,116,144Zm-4,0a8,8,0,1,1-8-8A8,8,0,0,1,112,144Zm36,0a12,12,0,1,0-12,12A12,12,0,0,0,148,144Zm-4,0a8,8,0,1,1-8-8A8,8,0,0,1,144,144Zm36,0a12,12,0,1,0-12,12A12,12,0,0,0,180,144Zm-4,0a8,8,0,1,1-8-8A8,8,0,0,1,176,144Zm36,0a12,12,0,1,0-12,12A12,12,0,0,0,212,144Zm-4,0a8,8,0,1,1-8-8A8,8,0,0,1,208,144Z"/><rect class="cls-2" x="44" y="40" width="60" height="80"/><rect class="cls-2" x="132" y="72" width="60" height="48"/><rect class="cls-3" x="44" y="60" width="60" height="20"/><rect class="cls-4" x="44" y="80" width="60" height="20"/><rect class="cls-5" x="44" y="100" width="60" height="20"/><rect class="cls-3" x="132" y="84" width="60" height="12"/><rect class="cls-4" x="132" y="96" width="60" height="12"/><rect class="cls-5" x="132" y="108" width="60" height="12"/></svg>