<svg xmlns="http://www.w3.org/2000/svg" viewBox="0 0 248 248"><defs><style>.cls-1{fill:#fff;}.cls-2{fill:#008fd3;}.cls-3,.cls-4,.cls-5{fill:#f0ab00;}.cls-4{opacity:0.7;}.cls-5{opacity:0.4;}</style></defs><title>285454-pictogram-neg</title><g id="outlines_--_combound_path" data-name="outlines -- combound path"><path class="cls-1" d="M206.53,178.69a6.78,6.78,0,0,0-6.37-2.68l-62.95,8.66-12.54-2.32a11.4,11.4,0,0,0,.22-2.29,8.84,8.84,0,0,0-3.5-7.5,10.36,10.36,0,0,0-5.91-1.91H76.78v-2.8H37.63v45.22H76.78v-4l56.62,4,.44,0,69.46-24a6.74,6.74,0,0,0,4.26-4.41A6.67,6.67,0,0,0,206.53,178.69ZM72.79,209.08H41.61V171.83H72.79Zm3.61-4v-30.4h39.07a5.42,5.42,0,1,1,0,10.84H89v3.61h26.45a9.61,9.61,0,0,0,7-3.09l14.59,2.7L200.71,180a2.8,2.8,0,0,1,2.62,1.1,2.8,2.8,0,0,1-1.34,4.31l-68.68,23.69ZM89.74,53.21V89.79c0,43.81,40.55,55.64,46.43,57.13v4.25h0c-.28-.06-26.52-5.73-41.06-27.85a52.63,52.63,0,0,1-2.74-4.65c-.25-.46-.53-.89-.78-1.38-.43-.89-.85-1.86-1.26-2.9l-.12-.32c-.06-.14-.11-.29-.18-.42l0-.09a63.3,63.3,0,0,1-4.37-23.76V50.21l50.6-16.28v4.34Z"/></g><g id="color_band" data-name="color band"><path class="cls-2" d="M136.19,33.93V151.18h0l.53-.12c.52-.11,51.47-12.15,51.47-62.43V50.31Z"/></g><g id="_100_band" data-name="100% band"><polygon class="cls-3" points="188.23 63.22 188.23 50.31 136.19 33.93 136.19 63.22 188.23 63.22"/></g><g id="_70_band" data-name="70% band"><path class="cls-4" d="M136.19,92.54h51.93c.07-1.28.11-2.57.11-3.9V63.22h-52Z"/></g><g id="_40_band" data-name="40% band"><path class="cls-5" d="M136.19,121.85h42.68a58.88,58.88,0,0,0,9.25-29.31H136.19Z"/></g></svg>