<svg xmlns="http://www.w3.org/2000/svg" viewBox="0 0 248 248"><defs><style>.cls-1{fill:#008fd3;}.cls-2,.cls-3,.cls-4{fill:#f0ab00;}.cls-3{opacity:0.7;}.cls-4{opacity:0.4;}.cls-5{fill:#fff;}</style></defs><title>284379-pictogram-neg</title><g id="color_band" data-name="color band"><path class="cls-1" d="M216.19,106.85v-26H127.88l-13.37,26Zm-31.38-15h9.95a2,2,0,0,1,0,4h-9.95a2,2,0,0,1,0-4Zm-53.32,0h9.95a2,2,0,0,1,0,4h-9.95a2,2,0,0,1,0-4Z"/></g><g id="_100_band" data-name="100% band"><path class="cls-2" d="M189.69,80.85v11h5.07a2,2,0,0,1,0,4h-5.07v11h26.5v-26Z"/></g><g id="_70_band" data-name="70% band"><path class="cls-3" d="M184.81,95.85a2,2,0,0,1,0-4h4.88v-11h-26.5v26h26.5v-11Z"/></g><g id="_40_band" data-name="40% band"><path class="cls-4" d="M136.69,80.85v11h4.75a2,2,0,0,1,0,4h-4.75v11h26.5v-26Z"/></g><g id="outlines_--_combound_path" data-name="outlines -- combound path"><path class="cls-5" d="M141.44,95.85h-9.95a2,2,0,0,1,0-4h9.95a2,2,0,0,1,0,4Zm41.37-2a2,2,0,0,0,2,2h9.95a2,2,0,0,0,0-4h-9.95A2,2,0,0,0,182.81,93.85Zm37.45,17v78h-106v4h110v-82ZM93,73.26,76.32,106.38a24.07,24.07,0,0,1,7,3.4L81,113.05c-5.93-4.17-12.25-3.91-15.66-3.76-.57,0-1.07,0-1.48,0v-4c.37,0,.82,0,1.33,0a38.74,38.74,0,0,1,7.09.21L87.1,76l-8.51,3.19-1.4-3.75,13.29-5A2,2,0,0,1,93,73.26Zm84.95,95.59H148.28v-1a16.52,16.52,0,0,1,3.18-9.84,30.81,30.81,0,0,1,4.74-5.14,65.89,65.89,0,0,1,7.52-5.6,53.52,53.52,0,0,0,4.46-3.13,18.49,18.49,0,0,0,3-2.91,10.84,10.84,0,0,0,1.72-3,10.12,10.12,0,0,0,.56-3.41,8.81,8.81,0,0,0-2.43-6.53q-2.43-2.43-7-2.43-7.4,0-11.43,7.95l-3.5-2.06a19.47,19.47,0,0,1,6.24-7.23,15.45,15.45,0,0,1,8.9-2.58,16.12,16.12,0,0,1,5.62.93,12,12,0,0,1,4.27,2.61,11.33,11.33,0,0,1,2.68,4,13.48,13.48,0,0,1,.93,5.11,14.29,14.29,0,0,1-.63,4.33,12.74,12.74,0,0,1-2,3.85,21,21,0,0,1-3.68,3.7,63.88,63.88,0,0,1-5.56,4,41.46,41.46,0,0,0-9.37,7.6q-3.09,3.63-3.33,6.82h24.77Zm38.27-62H114.51l13.37-26,3.07-6v0c3.34-6.77-5.33-22.42-7.11-25.49l-1.8-3.12L110,69l-21.7,40.84.79,1a67,67,0,0,1,4.31,6.38l0,.07c.27.45.53.9.79,1.36l.16.3c.21.38.42.76.62,1.15.08.15.15.31.23.47.17.32.33.65.48,1s.16.35.24.52.28.61.41.91l.23.57c.11.28.22.56.32.83s.14.4.2.6.18.51.25.75.11.4.16.6.13.46.18.68.06.39.09.59.08.41.11.61,0,.36,0,.55,0,.38,0,.55,0,.33-.05.49,0,.34-.06.5a3,3,0,0,1-.14.42c-.05.15-.09.31-.15.45l0,.06c-.68,1.31-2.43,2-5.21,2h-.1c-4.9,0-7.52-2.45-10.82-5.55-3.78-3.53-8.06-7.54-16.52-8.78-12.17-1.79-27.1,3.09-34.57,6L55,69.29A75.73,75.73,0,0,1,90.48,63c5.23.37,10.06,2.76,13.69,4.81l2-3.48c-4-2.26-9.36-4.9-15.38-5.32a77.59,77.59,0,0,0-38.27,7l-.62.33L22.39,132.73l4.83-2.24c.88-.4,21.57-9.89,37-7.62,7.22,1,10.85,4.45,14.36,7.74s7.08,6.63,13.56,6.63h.12c4.19,0,7-1.32,8.53-3.82,0-.07.1-.13.14-.21l.07-.14h0l0-.08h0l9.22-17.92v69.78H216.19v-78ZM101,124.33s0-.1,0-.14c-.09-.29-.19-.58-.29-.86a2.83,2.83,0,0,0-.11-.31c-.09-.26-.18-.51-.28-.77,0-.09-.07-.18-.11-.28-.27-.68-.57-1.36-.89-2l-.12-.27c-.13-.25-.25-.51-.38-.76,0-.09-.08-.18-.13-.27l-.47-.91,0-.06-.54-1c0-.07-.07-.13-.1-.19l-.44-.76L97,115.5c-.15-.26-.3-.51-.46-.76,0,0,0-.09-.07-.13l-.54-.87a.83.83,0,0,0-.08-.12l-.44-.7-.12-.18-.42-.63-.08-.12c-.16-.25-.32-.49-.48-.71v0l-.42-.61-.11-.16q-.17-.21-.3-.42l-.1-.14-.35-.47,20.5-38.58h0l8.66-16.29c3.46,6.73,6.74,15.4,5.24,18.48Zm111.17,56.52H114.28v-70h97.91Z"/></g></svg>