<svg id="Pictograms" xmlns="http://www.w3.org/2000/svg" viewBox="0 0 240 240"><defs><style>.cls-1{fill:#fff;}.cls-2{fill:#008fd3;}.cls-3,.cls-4,.cls-5{fill:#f0ab00;}.cls-4{opacity:0.7;}.cls-5{opacity:0.4;}</style></defs><title>281045-pictogram-neg</title><path class="cls-1" d="M188,172.16V160H63.06l11.65-19.18-3.42-2.08L55.94,164H72v8.16A14,14,0,1,0,83.78,176h92.44A14,14,0,1,0,188,172.16ZM184,164v8H76v-8ZM84,186a10,10,0,1,1-10-10A10,10,0,0,1,84,186Zm102,10a10,10,0,1,1,10-10A10,10,0,0,1,186,196ZM56.11,67.77C56,67.38,53.87,58,45.9,58H24V54H45.9C54.82,54,59,62.36,60,66.85l2.41,8L58.58,76Z"/><polygon class="cls-2" points="56 67.48 67.87 152 187.92 152 208.01 80.07 56 67.48"/><polygon class="cls-3" points="96 152 96 70.77 56 67.48 67.87 152 96 152"/><polygon class="cls-4" points="96 70.77 96 152 136 152 136 74.03 96 70.77"/><polygon class="cls-5" points="136 152 176 152 176 77.3 136 74.03 136 152"/></svg>