<svg id="Pictograms" xmlns="http://www.w3.org/2000/svg" viewBox="0 0 240 240"><defs><style>.cls-1{fill:#970a82;}.cls-2,.cls-3,.cls-4{fill:#f0ab00;}.cls-3{opacity:0.4;}.cls-4{opacity:0.7;}.cls-5{fill:#fff;}</style></defs><title>281546-pictogram-neg</title><polygon class="cls-1" points="152 114.9 140.65 100.45 120 125.23 103.48 79.81 88 107.68 76.64 96.32 56 116.97 56 150 88 150 120 150 152 150 184 150 184 67.42 152 114.9"/><polygon class="cls-2" points="152 114.9 152 150 184 150 184 67.42 152 114.9"/><polygon class="cls-3" points="103.48 79.81 88 107.68 88 150 120 150 120 125.23 103.48 79.81"/><polygon class="cls-4" points="120 125.23 120 150 152 150 152 114.9 140.65 100.45 120 125.23"/><path class="cls-5" d="M196,46H44A12,12,0,0,0,32,58V162a12,12,0,0,0,12,12h58v16H80v4h80v-4H138V174h58a12,12,0,0,0,12-12V58A12,12,0,0,0,196,46ZM134,190H106V174h28Zm70-28a8,8,0,0,1-8,8H44a8,8,0,0,1-8-8V58a8,8,0,0,1,8-8H196a8,8,0,0,1,8,8Zm-84.69-32.82L103.1,84.61,88.46,111,76.65,99.15,57.41,118.38a2,2,0,0,1-2.83-2.83L76.65,93.49l10.89,10.89L103.87,75l16.83,46.27,20-24,11.19,14.24L182.34,66.3a2,2,0,1,1,3.32,2.24L152.12,118.3,140.6,103.63Z"/></svg>