<svg xmlns="http://www.w3.org/2000/svg" viewBox="0 0 248 248"><defs><style>.cls-1{fill:#970a82;}.cls-2,.cls-3,.cls-4{fill:#f0ab00;}.cls-3{opacity:0.7;}.cls-4{opacity:0.4;}.cls-5{fill:#fff;}</style></defs><title>283632-pictogram-neg</title><g id="color_band" data-name="color band"><path class="cls-1" d="M78.41,112.75v13.42H60.1v17.2H27V83.85c0-1.33,1.68-9.28,9.46-9.28h9.75c7.43,0,13.83,6.48,13.83,14.21v20H48.79v-17h-4v21ZM212.55,74.6H204c-12.94,0-17.08,12.88-17.29,16a7,7,0,0,0,0,1.95l1.13,16.23h11.25V92.52h4v20.23H169.45V126.6h19.63l.19,2.11.85,10.66h-12.8c-11,0-19.94,6.79-19.94,17.81h48a15.65,15.65,0,0,0,15.51-15.82V83.54C220.84,82.31,219.68,74.6,212.55,74.6Z"/></g><g id="_100_band" data-name="100% band"><path class="cls-2" d="M60.1,91.78H27V83.85c0-1.33,1.68-9.28,9.46-9.28h9.75c7.43,0,13.83,6.48,13.83,14.21Zm160.74-8.24c0-1.23-1.16-8.94-8.29-8.94H204c-12.94,0-17.08,12.88-17.29,16a7,7,0,0,0,0,1.95h34.14Z"/></g><g id="_70_band" data-name="70% band"><path class="cls-3" d="M220.84,110.62H203.07V92.52h17.77Zm-21.77-18.1H186.69l1.13,16.23h11.25Zm-139,16.23v-17H48.79v17Zm-33-17V109H44.79V91.78Z"/></g><g id="_40_band" data-name="40% band"><path class="cls-4" d="M220.84,110.62v18.09H189.27l-.19-2.11H169.45V112.75h33.63v-2.13Zm-176,2.13V109H27v17.21H78.41V112.75Z"/></g><g id="outlines_--_combound_path" data-name="outlines -- combound path"><path class="cls-5" d="M90.84,204.67l-9.18-7.87H70.53v-4H80.68l5.64-35.71a13.84,13.84,0,0,0-13.82-13.71H60.11v-4h12.4a17.84,17.84,0,0,1,17.82,17.83l0,.31L84.54,194l17.11,14.66H70.53v-4ZM41.15,52a7.87,7.87,0,1,1,15.74,0v4h-2v2A5.89,5.89,0,0,1,49,63.9v4A9.9,9.9,0,0,0,58.7,60h2.18V52a11.87,11.87,0,1,0-23.74,0V74.59h4Zm9.62,121v31.6H62.61v4H34.92v-4H46.76v-31.6H27V157.19h6.66a17.78,17.78,0,0,1-6.59-13.82h4a13.84,13.84,0,0,0,13.83,13.82H70.54v15.87Zm15.78-4v-7.87H31v7.87Zm134.55,4v31.6h11.85v4h-27.7v-4h11.85v-31.6H177.31V157.19h43.57v15.87Zm-19.78-4h35.57v-7.87H181.31ZM225.84,53.12A8.91,8.91,0,0,1,212,60.55V74.61h-4V52a7.87,7.87,0,1,0-15.73,0v4h2v2a5.89,5.89,0,0,0,5.89,5.89v4A9.9,9.9,0,0,1,190.44,60h-2.18V52a11.86,11.86,0,0,1,22.46-5.33,8.91,8.91,0,0,1,15.12,6.4Zm-4,0A4.92,4.92,0,1,0,216.92,58,4.93,4.93,0,0,0,221.84,53.12ZM161.68,157.19h-4L163.32,194l-17.1,14.66h31.12v-4H157l9.18-7.87h11.13v-4H167.18Zm41.39-64.66v20.23H169.45v25.73H131.87v69.78h-4V138.49H120v69.78h-4V138.49H78.42V112.75H44.79v-21h4v17H85.36a8.91,8.91,0,0,1,7.43,13.85h28.67l-11.4-53.18v-20H102.2V98.87h9.87v4H98.2V45.46h15.87V69l9.87,46,9.87-46V45.46h15.87v57.41H135.8v-4h9.87V49.46H137.8l0,20.18-11.35,53h28.66a8.92,8.92,0,0,1,7.43-13.85h36.58V92.52ZM82.41,122.6h3a4.92,4.92,0,1,0,0-9.84h-3Zm39.52,4H82.42v7.88h39.51Zm35.64-8.93a4.93,4.93,0,0,0,4.92,4.92h3v-9.85h-3A4.93,4.93,0,0,0,157.57,117.67Zm7.88,16.81v-7.88H125.94v7.88Z"/></g></svg>