<svg id="Pictograms" xmlns="http://www.w3.org/2000/svg" viewBox="0 0 240 240"><defs><style>.cls-1{fill:#fff;}.cls-2{fill:#008fd3;}.cls-3,.cls-4,.cls-5{fill:#f0ab00;}.cls-4{opacity:0.7;}.cls-5{opacity:0.4;}</style></defs><title>281475-pictogram-neg</title><path class="cls-1" d="M168.54,117.76,154.32,110l14.22-7.76,1.92,3.51L162.68,110l7.78,4.24ZM148,176h11c4.21,0,17,0,17-14V132h12V108a68,68,0,0,0-136,0c0,22.13,13.1,44.14,32,54v41.63l64,12.8ZM88,159.53,86.88,159C68.7,150.06,56,129.09,56,108a64,64,0,0,1,128,0v20H172v34c0,7.2-3.64,10-13,10H144v39.56l-56-11.2Zm32-68.95Zm0,0Zm0,0Zm0,0Zm0,0Zm0,0Zm0,0Zm0,0Zm0,0Zm0,0Zm0,0Zm0,0Zm0,0Zm0,0Zm0,0Zm0,0Zm0,0Zm0,0Zm0,0h0Zm0,0Zm0,0Zm0,0Zm0,0h0Zm0,0h0Zm0,0Zm0,0h0Zm0,0Zm0,0Zm0,0Zm0,0h0Zm0,0h0Zm0,0Zm0,0Zm0,0h0Zm0,0h0Zm0,0Zm0,0Zm0,0ZM122,12h-4V28h4ZM77.73,38.79l-8-13.86-3.46,2,8,13.86ZM44.79,70.27l-13.86-8-2,3.46,13.86,8ZM32,114H16v4H32Zm12.79,47.73-2-3.46-13.86,8,2,3.46Zm166.28,4.54-13.86-8-2,3.46,13.86,8ZM224,114H208v4h16ZM211.07,65.73l-2-3.46-13.86,8,2,3.46Zm-37.33-38.8-3.46-2-8,13.86,3.46,2Z"/><path class="cls-2" d="M179.32,74.67a68.34,68.34,0,0,0-33.1-29.58,67.49,67.49,0,0,0-13-4,68.16,68.16,0,0,0-26.5,0A67.3,67.3,0,0,0,81.28,51.91,68.16,68.16,0,0,0,60.59,74.67a67.57,67.57,0,0,0-6.42,15.91H185.74A67.57,67.57,0,0,0,179.32,74.67Z"/><path class="cls-3" d="M81.28,51.91A68.16,68.16,0,0,0,60.59,74.67a67.57,67.57,0,0,0-6.42,15.91H120Z"/><path class="cls-4" d="M106.71,41.13A67.3,67.3,0,0,0,81.28,51.91L120,90.58h0V39.83A68.32,68.32,0,0,0,106.71,41.13Z"/><path class="cls-5" d="M146.22,45.09a67.48,67.48,0,0,0-13-4A68.32,68.32,0,0,0,120,39.83V90.58h0l38.67-38.67A67.8,67.8,0,0,0,146.22,45.09Z"/></svg>