<svg id="Pictograms" xmlns="http://www.w3.org/2000/svg" viewBox="0 0 240 240"><defs><style>.cls-1{fill:#fff;}.cls-2{fill:#008fd3;}.cls-3,.cls-4,.cls-5{fill:#f0ab00;}.cls-4{opacity:0.4;}.cls-5{opacity:0.7;}</style></defs><title>281575-pictogram-neg</title><path class="cls-1" d="M158.32,71.77v-4h-2.89V55.69h-16V67.77h-2.89v4h2.89V96.26h-2.89v4h2.89V117.6h-2.89v4h2.89v13.28h4V121.6h2.9v-4h-2.9V100.26h8v14.63h4V100.26h2.89v-4h-2.89V71.77ZM143.43,59.69h8v8.08h-8Zm8,36.57h-8V71.77h8ZM60.21,186.59v-47H63.1v-4H60.21v-14H63.1v-4H60.21V100.26H63.1v-4H60.21V71.77H63.1v-4H60.21V55.69h-16V67.77H41.31v4h2.89V96.26H41.31v4h2.89V117.6H41.31v4h2.89v14H41.31v4h2.89v47h-9v4H65v10.29H35.21v4H69V186.59Zm-12-126.9h8v8.08h-8Zm0,12.08h8V96.26h-8Zm0,28.49h8V117.6h-8Zm0,21.34h8v14h-8Zm8,18v47h-8v-47Zm35.47-24.75,3.15-80.22h15.85l3.15,80.22h-4l-3-76.22H98.67l-3,76.22Zm3.59,8h34.33v4H99.26v8h30.33v4H95.26Zm92.35,16H153.27v-4h30.33v-8H153.27v-4h34.33ZM81,190.6v10.28H204.88v4H77V186.59H200.89V176.31H77v-4H204.89V190.6Z"/><path class="cls-2" d="M187.64,138.88H153.26q-.67.49-1.3,1c-.31.25-.6.52-.89.78l-.35.31c-.33.31-.65.63-1,.95l-.21.21c-.33.35-.65.7-1,1.07l-.14.16c-.32.38-.63.76-.94,1.16l-.1.13c-.31.41-.61.82-.9,1.25l-.07.1c-.29.43-.57.87-.84,1.32l-.05.08q-.41.68-.78,1.39l0,.06q-.37.71-.7,1.44l0,.06q-.33.73-.62,1.49l0,.06c-.19.5-.37,1-.53,1.52l0,.08c-.16.51-.31,1-.44,1.55l0,.08c-.13.51-.24,1-.35,1.56l0,.12c-.1.51-.18,1-.25,1.56l0,.15c-.07.51-.12,1-.16,1.55,0,.06,0,.13,0,.19,0,.51-.05,1-.06,1.53,0,.07,0,.13,0,.2s0-.06,0-.09c0-.56,0-1.11-.07-1.66v-.06q-.06-.85-.17-1.68v0a28.82,28.82,0,0,0-3.85-11.07l0,0q-.42-.7-.87-1.37l0-.07c-.29-.43-.6-.86-.92-1.27l-.12-.15c-.3-.38-.6-.76-.92-1.13l-.22-.25c-.29-.33-.58-.66-.89-1l-.43-.43c-.25-.25-.49-.49-.74-.73s-.61-.54-.92-.81l-.32-.28q-.64-.53-1.31-1H95.23a29,29,0,0,0-10,33.43h112.5a29,29,0,0,0-10-33.43Zm-46.22,24.39q0-.34,0-.69,0,.34,0,.69Z"/><path class="cls-3" d="M195.28,147.23H145.63a29.19,29.19,0,0,1,7.64-8.36h34.37A29.18,29.18,0,0,1,195.28,147.23Z"/><path class="cls-3" d="M137.24,147.23H87.58a29.16,29.16,0,0,1,7.65-8.36H129.6A29.17,29.17,0,0,1,137.24,147.23Z"/><path class="cls-4" d="M83.45,164h116c0-.56.05-1.13.05-1.7a29.09,29.09,0,0,0-.78-6.66H142.21a29,29,0,0,0-.77,6.37,29.09,29.09,0,0,0-.77-6.37H84.17a29,29,0,0,0-.78,6.66C83.39,162.83,83.42,163.4,83.45,164Z"/><path class="cls-5" d="M140.66,155.6a28.87,28.87,0,0,0-3.41-8.36H87.58a28.87,28.87,0,0,0-3.41,8.36Z"/><path class="cls-5" d="M198.69,155.6a28.85,28.85,0,0,0-3.41-8.36H145.62a28.84,28.84,0,0,0-3.41,8.36Z"/></svg>