<svg xmlns="http://www.w3.org/2000/svg" viewBox="0 0 248 248"><defs><style>.cls-1{fill:#fff;}.cls-2{fill:#008fd3;}.cls-3,.cls-4,.cls-5{fill:#f0ab00;}.cls-4{opacity:0.7;}.cls-5{opacity:0.4;}</style></defs><title>283057-pictogram-neg</title><g id="outlines_--_combound_path" data-name="outlines -- combound path"><path class="cls-1" d="M225.16,176.86l-2-32.64,0-.18s-.38-2.42-.48-4.07c-.31-5.18-3.64-11.22-12-11.22H199.14v-6h7.69a6.71,6.71,0,0,0,6.67-6.54c0-.12,0-.25,0-.25l-.05-1.94h-1.95a2.5,2.5,0,0,1-2.62-2.48v-.15a8.66,8.66,0,0,0-8.65-8.65h-1.73A12,12,0,0,0,175,106.56v8.09h2.21a10,10,0,0,0,9.82,8v-4a6,6,0,0,1-6-6v-2h-2v-4.09a8.05,8.05,0,0,1,16.1,0v22.18H173.2c-8.36,0-11.69,6-12,11.22V140H140l-9.23,28.24H113.12v11.41h35.17c-.47.26-.93.53-1.36.81a10.55,10.55,0,0,0-3.75,3.81,15,15,0,0,0-1.9,4.78l-11.89,9.47h0l-26.86-2.83L88.06,170l-.33-.43c-3.38-3.38-7.08-5.12-10.91-5.23l.61-.51a8.41,8.41,0,0,0-3.74-14.7L88.3,134.54l-2.83-2.83-8.76,8.76A7.73,7.73,0,0,0,66,135.6L47.3,145.22l-18.48-2.81-.63-.08v-5l-.9-5.18a40.08,40.08,0,0,0,8.58-8.06A22.32,22.32,0,0,0,40,115.82,8,8,0,0,1,41.33,119l.71,4-2,.35.35,2a6,6,0,0,1-4.89,7l.69,3.94a10,10,0,0,0,8.29-9.62l2.18-.38-1.4-8a12,12,0,0,0-4.48-7.41,17.08,17.08,0,0,0,0-2l-2.69.19a6.55,6.55,0,0,0-.38-2.82A5.41,5.41,0,0,0,32,102.88a5.54,5.54,0,0,0-2.21-2,8.56,8.56,0,0,0-6.21-.61,4.4,4.4,0,0,0-2.73-1,8.43,8.43,0,0,0-5.72,2.15,4.64,4.64,0,0,0-1.23-.2c-2.53-.08-5.24,1.71-7.19,4.73-2.47,3.83-2.26,8.75.61,13.86a16.27,16.27,0,0,1,1.21,3.32,21.74,21.74,0,0,0,2.13,5.37,9.94,9.94,0,0,0,10,4.94l2.06,1.2.91-.37.06,0,.57,3.25v4.73a10.51,10.51,0,0,0-6.72,3.37,10.57,10.57,0,0,0-2.54,6.9c0,.12,0,.25,0,.41s0,.17,0,.25a36.29,36.29,0,0,0,1,8.62l4.29,35.37c1.26,10.29,8.9,17.77,18.21,17.89H144.72V198.53a11.26,11.26,0,0,0,4.88,2.95l7.1,1.84-5.75,9.38,21.35-5.76,33,7.67.3.44h24.59l-10.06-13,10.92-1a10.9,10.9,0,0,0,7.57-4.34h4.28v-2C242.92,183.23,237.45,178.67,225.16,176.86Zm-26-70.13h1.09a4.66,4.66,0,0,1,4.65,4.66v.15a6.4,6.4,0,0,0,4.17,6,2.71,2.71,0,0,1-2.22,1.18h-7.69Zm-98.91,93.08H88l-1.88-2.5a3.76,3.76,0,0,1,2-2.49,11,11,0,0,1,9.16-.29ZM75.4,154.57a4.42,4.42,0,0,1-.55,6.22l-9.94,8.31-.17.14-14,11.71L36.66,166.86l6.67-6.46,6.74,6.77,1.27,1.27L65.9,156.78l0,0,1.22-1h0l.07-.07,2-1.65A4.43,4.43,0,0,1,75.4,154.57Zm-25.61,6.66,11.29-5.72-9.45,7.57Zm-6.72-12.6,4.93.75,19.66-10.14a3.79,3.79,0,0,1,5,1.83,3.68,3.68,0,0,1-.46,3.91l-.69.69a4.07,4.07,0,0,1-.74.45l-23,11.62-1.72-.2-4.34-4.35Zm-4-.61-.55,1.93-2.38-2.37ZM25.45,104a4.18,4.18,0,0,1,2.43.42,1.79,1.79,0,0,1,.69.53s-.06.71-1.66,2.05c-.58.49-1.12,1-1.62,1.42A12.75,12.75,0,0,0,25.45,104Zm-2.56,26.14-1.65-1-.8.21a5.9,5.9,0,0,1-6.37-3A18.31,18.31,0,0,1,12.35,122a19.38,19.38,0,0,0-1.57-4.16c-2.1-3.75-2.36-7.21-.73-9.73s3.57-3.08,3.91-2.9c2.24,3.83-4,9.91-4.11,10l2.73,2.92c.34-.32,7.83-7.45,5.33-13.85a4.27,4.27,0,0,1,2.79-1c.16,0,.29,0,.46.29.56.88.81,3.55-.79,7.3-3.33,7.77-4,11.89-4,12.06l4,.59a33.6,33.6,0,0,1,1.23-4.56,61.16,61.16,0,0,1,7.91-8.88,9.54,9.54,0,0,0,2.63-3.18,1.68,1.68,0,0,1,1.9.89c.61,1.58-.86,5.77-5.52,11.22a34.14,34.14,0,0,1-7.78,6.92l2,3.47a37.34,37.34,0,0,0,8.84-7.79,40.77,40.77,0,0,0,4.4-6.16,18.19,18.19,0,0,1-3.19,6.13A33.48,33.48,0,0,1,22.89,130.14Zm-3,31L19,153.91c0-.26,0-.51-.06-.76,0-.6,0-1,0-1h0a6.39,6.39,0,0,1,1.53-3.92,6.9,6.9,0,0,1,5.19-2.13l.69,0h0l.86.08a7.69,7.69,0,0,1,4.38,2.45c.52.48,4.48,4.45,8.91,8.88L33.83,164l-3.7-3.7-2.83,2.83,5.21,5.21a15.9,15.9,0,0,1-4.54.69,6.81,6.81,0,0,1-5.22-2.16A13.32,13.32,0,0,1,19.86,161.13ZM72.36,211H38.61c-8.33,0-13.57-7.23-14.45-14.37l-3.15-26A10.81,10.81,0,0,0,28,173.06a20.29,20.29,0,0,0,7.67-1.56l14.87,14.87,17-14.22c6.26-5.13,11.89-5.09,17.21.11l9.83,17.46a14.88,14.88,0,0,0-8.44,1.64,8.46,8.46,0,0,0-2.68,2.39l-8.19-10.88-3.2,2.41L82,198.47c-.23,1.68-2.12,3.44-4.12,5.29C75.63,205.83,73.16,208.12,72.36,211Zm4.31,0a19.9,19.9,0,0,1,3.9-4.34,24.91,24.91,0,0,0,4.18-4.55l1.11,1.47L91.51,211Zm19.86,0L91,203.81h12.25L115.06,211Zm32.09,0h-5.88L105,200.2l-.11-.19,23.69,2.49Zm12.09-16.38s0,.05,0,.08v2h0V211h-8.09v-10l8.09-6.44Zm38.87-1.92H144.78c.43-6.37,3.16-9.64,10.38-11.32,7-1.63,18.31-1.76,35.91-1.76h.7c36.32,0,46.23.5,47.1,13.08ZM181.77,171a4.72,4.72,0,0,1,4.71-4.71h2.82v9.42h-2.82A4.71,4.71,0,0,1,181.77,171Zm-8.57-38.22h37.42c6.82,0,7.87,5.22,8,7.47.1,1.66.43,3.87.5,4.35l2,31.83c-7.25-.68-16.46-.71-27.82-.71v-9.42h17.35l-1.31-21.35-4,.24,1,17.11H186.49a8.66,8.66,0,0,0-2.94.52L191,140H165.22C165.39,137.7,166.55,132.74,173.2,132.74ZM142.85,144h42.61l-7.92,24.24H134.93Zm-25.74,31.65v-3.41H177v3.41Zm42.49,30.54,1.2-1.95L164,205Zm-8.9-8.58a7.56,7.56,0,0,1-1.94-.89h34.67l14.22,6.63.13.2,4.19,6.15S152.89,198.18,150.71,197.63ZM222,211H207.73l-5.06-7.42,12.75-1.14Zm8.6-13.94-31,2.77-6.72-3.13h39.29A7.93,7.93,0,0,1,230.65,197.11Zm-86.12-51.53-6.42,20.79h37.73l6.41-20.79Zm28.36,16.79H143.53l3.95-12.79h29.35Z"/></g><g id="color_band" data-name="color band"><path class="cls-2" d="M170.78,112.2,149.61,92.35c.21-.34.44-.68.64-1a39,39,0,1,0-9.83,11.28c.47-.37.92-.75,1.38-1.14Z"/></g><g id="_100_band" data-name="100% band"><path class="cls-3" d="M82.8,52.38h67.45a38.94,38.94,0,0,0-67.45,0"/></g><g id="_70_band" data-name="70% band"><path class="cls-4" d="M82.8,52.38a38.72,38.72,0,0,0-5.23,19.48h77.9a38.78,38.78,0,0,0-5.22-19.48Z"/></g><g id="_40_band" data-name="40% band"><path class="cls-5" d="M82.8,91.33h67.45a38.78,38.78,0,0,0,5.22-19.47H77.58A38.71,38.71,0,0,0,82.8,91.33"/></g></svg>