<svg xmlns="http://www.w3.org/2000/svg" viewBox="0 0 248 248"><defs><style>.cls-1{fill:#fff;}.cls-2{fill:#008fd3;}.cls-3,.cls-4,.cls-5{fill:#f0ab00;}.cls-4{opacity:0.7;}.cls-5{opacity:0.4;}</style></defs><title>282542-pictogram-neg</title><g id="outlines_--_combound_path" data-name="outlines -- combound path"><path class="cls-1" d="M218.52,187.91h-188V66h4V183.91h180V66h4ZM42.86,56.92a2,2,0,1,0,2,2A2,2,0,0,0,42.86,56.92Zm8,0a2,2,0,1,0,2,2A2,2,0,0,0,50.83,57Zm8,0a2,2,0,1,0,2,2A2,2,0,0,0,58.83,56.92Zm13.54,51.57L56.23,95.93,72.37,83.37l-2.46-3.16L49.72,95.93l20.2,15.72ZM198.8,153.68,178.6,138l-2.46,3.16,16.14,12.56-16.14,12.56,2.46,3.16ZM171.46,93.92H79.57v4h91.88Zm0,27H79.57v4h91.88Zm-19.7,27H79.57v4h72.18Zm21.79-13.69-3.64-1.67L154.12,167l3.64,1.67Z"/></g><g id="color_band" data-name="color band"><path class="cls-2" d="M171.56,51.89H30.5V66h188V51.89Zm-128.7,9a2,2,0,1,1,2-2A2,2,0,0,1,42.86,60.89Zm8,0a2,2,0,1,1,2-2A2,2,0,0,1,50.83,60.93Zm8,0a2,2,0,1,1,2-2A2,2,0,0,1,58.83,60.89Z"/></g><g id="_100_band" data-name="100% band"><rect class="cls-3" x="171.56" y="51.89" width="46.96" height="14.11"/></g><g id="_70_band" data-name="70% band"><rect class="cls-4" x="124.54" y="51.89" width="47.02" height="14.11"/></g><g id="_40_band" data-name="40% band"><path class="cls-5" d="M77.52,51.89h47V66h-47Z"/></g></svg>